<svg width="80" height="80" viewBox="0 0 200 200" xmlns="http://www.w3.org/2000/svg">
  <circle cx="100" cy="100" r="90" fill="#D32F2F" stroke="#B71C1C" stroke-width="4"/>
  <path d="M100 30 Q120 60 115 85 Q130 70 140 90 Q125 105 130 130 Q115 120 110 145 Q100 120 90 145 Q85 120 70 130 Q75 105 60 90 Q70 70 85 85 Q80 60 100 30Z" fill="#FFC107"/>
  <path d="M85 150 Q90 135 100 140 Q110 135 115 150 Q110 165 100 170 Q90 165 85 150Z" fill="#4CAF50"/>
  <path d="M100 170 L100 185" stroke="#4CAF50" stroke-width="3" stroke-linecap="round"/>
  <text x="100" y="115" font-family="Arial, sans-serif" font-size="28" font-weight="bold" fill="white" text-anchor="middle">SCNU</text>
</svg>